<svg id="Layer_1" data-name="Layer 1" xmlns="http://www.w3.org/2000/svg" width="16" height="14" viewBox="0 0 16 14"><defs><style>.cls-1{fill:#b2f1d5;}.cls-2{fill:#333;}</style></defs><title>icon-new-gab</title><path class="cls-1" d="M8,11.5a8.14,8.14,0,0,1-2.45-.38l-.71-.22-.61.43a6.62,6.62,0,0,1-1.79.9A8.09,8.09,0,0,0,3.06,11l.33-.88-.64-.68A4.28,4.28,0,0,1,1.5,6.5c0-2.76,2.92-5,6.5-5s6.5,2.24,6.5,5S11.59,11.5,8,11.5Z"/><path class="cls-2" d="M4.5,5.5a1,1,0,1,0,1,1A1,1,0,0,0,4.5,5.5ZM8,5.5a1,1,0,1,0,1,1A1,1,0,0,0,8,5.5Zm3.5,0a1,1,0,1,0,1,1A1,1,0,0,0,11.5,5.5ZM8,0C3.58,0,0,2.91,0,6.5a5.72,5.72,0,0,0,1.66,3.95A8,8,0,0,1,.21,12.73.75.75,0,0,0,.75,14,7.55,7.55,0,0,0,5.1,12.55,9.47,9.47,0,0,0,8,13c4.42,0,8-2.91,8-6.5S12.42,0,8,0ZM8,11.5a8.14,8.14,0,0,1-2.45-.38l-.71-.22-.61.43a6.62,6.62,0,0,1-1.79.9A8.09,8.09,0,0,0,3.06,11l.33-.88-.64-.68A4.28,4.28,0,0,1,1.5,6.5c0-2.76,2.92-5,6.5-5s6.5,2.24,6.5,5S11.59,11.5,8,11.5Z"/></svg>