<svg id="icon-search" xmlns="http://www.w3.org/2000/svg" width="14" height="114" viewBox="0 0 14 114"><defs><style>.cls-1{fill:#d8d8d8;}.cls-2{fill:#00d177;}</style></defs><title>icon-search-sprite</title><g id="d8d8d8"><path class="cls-1" d="M15.92,114a1.05,1.05,0,0,1-.75-.32l-2.89-2.88a5.94,5.94,0,1,1,1.52-1.52l2.89,2.89a1.07,1.07,0,0,1-.77,1.83Zm-7-11.85a3.77,3.77,0,1,0,3.77,3.77A3.78,3.78,0,0,0,8.92,102.15Z" transform="translate(-3)"/></g><g id="_00d177" data-name="00d177"><path class="cls-2" d="M15.92,14a1.05,1.05,0,0,1-.75-.32L12.28,10.8A5.94,5.94,0,1,1,13.8,9.28l2.89,2.89A1.07,1.07,0,0,1,15.92,14Zm-7-11.85a3.77,3.77,0,1,0,3.77,3.77A3.78,3.78,0,0,0,8.92,2.15Z" transform="translate(-3)"/></g></svg>