<svg id="icon-notifications" xmlns="http://www.w3.org/2000/svg" width="13" height="114" viewBox="0 0 13 114"><defs><style>.cls-1{fill:#d8d8d8;}.cls-2{fill:#00d177;}</style></defs><title>icon-notifications-sprite</title><g id="d8d8d8"><path class="cls-1" d="M10,114a2,2,0,0,0,2-2H8A2,2,0,0,0,10,114Z" transform="translate(-3.5)"/><path class="cls-1" d="M16.29,110.73,15.1,109.4a3.14,3.14,0,0,1-.68-1.79V105.7a4.41,4.41,0,0,0-3.58-4.34v-.52a.84.84,0,0,0-1.68,0v.52a4.41,4.41,0,0,0-3.58,4.34v1.91a3.14,3.14,0,0,1-.68,1.79l-1.19,1.33c-.38.42-.22.77.34.77H16C16.51,111.5,16.67,111.15,16.29,110.73Z" transform="translate(-3.5)"/></g><g id="_00d177" data-name="00d177"><path class="cls-2" d="M10,14a2,2,0,0,0,2-2H8A2,2,0,0,0,10,14Z" transform="translate(-3.5)"/><path class="cls-2" d="M16.29,10.73,15.1,9.4a3.14,3.14,0,0,1-.68-1.79V5.7a4.41,4.41,0,0,0-3.58-4.34V.84a.84.84,0,0,0-1.68,0v.52A4.41,4.41,0,0,0,5.58,5.7V7.61A3.14,3.14,0,0,1,4.9,9.4L3.71,10.73c-.38.42-.22.77.34.77H16C16.51,11.5,16.67,11.15,16.29,10.73Z" transform="translate(-3.5)"/></g></svg>