<svg id="icon-explore" xmlns="http://www.w3.org/2000/svg" width="14" height="14" viewBox="0 0 14 14"><defs><style>.cls-1{fill:#d8d8d8;}</style></defs><title>icon-explore-d8d8d8</title><path id="d8d8d8" class="cls-1" d="M10,0a7,7,0,1,0,7,7A7,7,0,0,0,10,0Zm2.32,10.09-.32.32a.75.75,0,0,0-.17.3,3.79,3.79,0,0,1-.14.48l-.49,1.32a5.26,5.26,0,0,1-1.2.14v-.78a2.11,2.11,0,0,0-.64-1.44.9.9,0,0,1-.26-.64V8.88a.9.9,0,0,0-.47-.79c-.4-.22-1-.53-1.38-.73a4.18,4.18,0,0,1-.89-.62l0,0a3.12,3.12,0,0,1-.51-.58l-1-1.45A5.68,5.68,0,0,1,7.77,1.82l.67.34a.46.46,0,0,0,.66-.41V1.43a5.06,5.06,0,0,1,.69-.06l.79.79a.45.45,0,0,1,0,.64l-.13.14-.29.29a.22.22,0,0,0,0,.32l.13.13a.22.22,0,0,1,0,.32l-.22.22a.21.21,0,0,1-.16.07H9.65a.2.2,0,0,0-.15.06l-.28.28a.21.21,0,0,0-.05.26l.44.88a.22.22,0,0,1-.2.33H9.25A.22.22,0,0,1,9.1,6l-.26-.23a.46.46,0,0,0-.44-.08L7.52,6a.33.33,0,0,0-.23.32.33.33,0,0,0,.19.3l.31.16a2,2,0,0,0,.86.2c.29,0,.63.77.9.9h1.88a.91.91,0,0,1,.64.27l.39.38a.88.88,0,0,1,.25.61A1.29,1.29,0,0,1,12.32,10.09Zm2.45-2.57a.74.74,0,0,1-.4-.29l-.51-.76a.68.68,0,0,1,0-.75l.56-.83a.58.58,0,0,1,.26-.23L15,4.48A5.48,5.48,0,0,1,15.65,7a5.83,5.83,0,0,1-.06.72Z" transform="translate(-3)"/></svg>