<svg id="icon-home" xmlns="http://www.w3.org/2000/svg" width="16.11" height="14" viewBox="0 0 16.11 14"><defs><style>.cls-1{fill:#d8d8d8;}</style></defs><title>navigation-icon-master</title><path id="d8d8d8" class="cls-1" d="M17.69,6.34,15.94,4.81V1.59A.79.79,0,0,0,15.15.8H14.09a.79.79,0,0,0-.79.79v.93L10.7.26A1,1,0,0,0,10.27,0h0l-.16,0H9.91L9.75,0h0A1,1,0,0,0,9.3.26l-7,6.08A1.06,1.06,0,0,0,2.2,7.83,1.12,1.12,0,0,0,3,8.19H4.06v4.75A1.06,1.06,0,0,0,5.11,14h3.6V9.51h2.74V14h3.44a1.06,1.06,0,0,0,1-1.06V8.19H17a1.12,1.12,0,0,0,.78-.36A1.06,1.06,0,0,0,17.69,6.34Z" transform="translate(-1.95)"/></svg>